<svg xmlns="http://www.w3.org/2000/svg" width="1365" height="672" viewBox="0 0 1365 672" version="1.1">
	<path d="M 527 30.686 C 519.337 31.260, 509 33.141, 509 33.963 C 509 34.393, 507.087 35.049, 504.750 35.421 C 502.413 35.793, 497.686 37.426, 494.247 39.049 C 490.808 40.672, 487.568 42, 487.047 42 C 486.526 42, 485.740 42.614, 485.300 43.365 C 484.860 44.115, 482.925 45.523, 481 46.493 C 475.266 49.383, 459.221 63.698, 455.500 69.244 C 454.950 70.064, 452.626 73.468, 450.336 76.809 C 448.046 80.149, 445.593 84.484, 444.885 86.441 C 444.177 88.399, 443.275 90, 442.879 90 C 442.484 90, 441.426 92.362, 440.527 95.250 C 439.628 98.138, 438.503 101.224, 438.026 102.110 C 437.549 102.995, 436.428 107.720, 435.535 112.610 C 434.642 117.499, 433.481 122.882, 432.956 124.571 C 432.430 126.260, 432 128.368, 432 129.256 C 432 130.144, 431.582 131.970, 431.071 133.314 C 430.220 135.551, 429.820 135.686, 426.321 134.907 C 424.219 134.440, 417.100 132.975, 410.500 131.651 C 403.900 130.328, 397.825 128.977, 397 128.649 C 393.453 127.238, 380.043 126.322, 374.355 127.101 C 365.687 128.289, 356.259 134.458, 354.463 140.116 C 354.134 141.152, 353.505 142, 353.064 142 C 352.624 142, 351.499 144.813, 350.565 148.250 C 349.630 151.688, 348.255 155.850, 347.508 157.500 C 346.761 159.150, 345.601 162.750, 344.930 165.500 C 344.260 168.250, 343.371 170.950, 342.956 171.500 C 342.540 172.050, 341.425 175.650, 340.477 179.500 C 339.530 183.350, 338.408 186.950, 337.985 187.500 C 337.562 188.050, 336.421 191.425, 335.451 195 C 334.481 198.575, 333.343 201.954, 332.921 202.509 C 332.500 203.064, 331.448 206.569, 330.583 210.298 C 329.718 214.028, 328.393 218.299, 327.639 219.790 C 326.885 221.280, 325.699 224.975, 325.003 228 C 324.307 231.025, 323.387 233.950, 322.958 234.500 C 322.530 235.050, 321.440 238.425, 320.538 242 C 319.635 245.575, 318.279 249.850, 317.523 251.500 C 316.768 253.150, 315.621 256.750, 314.975 259.500 C 314.330 262.250, 313.234 265.850, 312.540 267.500 C 311.847 269.150, 310.679 272.750, 309.945 275.500 C 309.211 278.250, 308.026 281.625, 307.311 283 C 306.597 284.375, 306.010 286.218, 306.006 287.095 C 306.003 287.972, 305.084 291.347, 303.964 294.595 C 302.845 297.843, 301.256 302.975, 300.434 306 C 299.612 309.025, 298.324 312.850, 297.572 314.500 C 296.819 316.150, 295.623 320.200, 294.914 323.500 C 294.204 326.800, 293.300 329.726, 292.903 330.002 C 292.507 330.279, 291.451 333.429, 290.557 337.002 C 289.663 340.576, 288.519 344.400, 288.016 345.500 C 286.357 349.124, 284 357.035, 284 358.976 C 284 360.024, 283.601 361.128, 283.114 361.429 C 282.627 361.731, 281.428 365.020, 280.449 368.738 C 279.470 372.457, 278.358 375.950, 277.977 376.500 C 277.596 377.050, 276.471 380.650, 275.477 384.500 C 274.483 388.350, 273.334 391.950, 272.924 392.500 C 272.514 393.050, 271.440 396.425, 270.538 400 C 269.635 403.575, 268.254 407.900, 267.468 409.610 C 266.682 411.321, 265.520 415.141, 264.885 418.100 C 264.250 421.060, 263.150 424.385, 262.439 425.490 C 261.728 426.596, 260.573 430.313, 259.873 433.750 C 259.173 437.187, 258.288 440, 257.908 440 C 257.527 440, 256.424 443.230, 255.457 447.177 C 254.489 451.124, 253.099 455.509, 252.366 456.921 C 251.634 458.333, 250.492 461.966, 249.829 464.994 C 249.166 468.022, 248.343 470.725, 248 471 C 247.657 471.275, 246.553 474.650, 245.546 478.500 C 244.539 482.350, 243.361 485.959, 242.927 486.519 C 242.493 487.080, 241.367 490.680, 240.423 494.519 C 239.480 498.359, 238.333 501.985, 237.875 502.577 C 237.417 503.170, 236.588 506.852, 236.034 510.760 C 234.912 518.672, 236.015 527.254, 238.508 530.009 C 239.329 530.916, 240 532.012, 240 532.446 C 240 533.428, 247.503 541, 248.475 541 C 248.865 541, 250.279 541.861, 251.617 542.914 C 252.955 543.966, 257.301 545.388, 261.275 546.073 C 265.249 546.758, 268.950 547.658, 269.500 548.072 C 270.050 548.487, 275.675 549.604, 282 550.555 C 288.325 551.506, 293.958 552.639, 294.519 553.073 C 295.079 553.506, 300.929 554.654, 307.519 555.624 C 314.108 556.594, 319.725 557.669, 320 558.013 C 320.492 558.628, 329.665 560.315, 339.500 561.599 C 342.250 561.959, 344.950 562.601, 345.500 563.027 C 346.050 563.453, 351.900 564.574, 358.500 565.516 C 365.100 566.459, 371.175 567.584, 372 568.015 C 373.568 568.835, 393.534 572, 397.140 572 C 398.936 572, 399.141 571.557, 398.648 568.750 C 397.739 563.570, 393.243 543.991, 391.651 538.276 C 390.850 535.403, 389.874 530.678, 389.482 527.776 C 389.090 524.874, 388.366 521.731, 387.872 520.791 C 387.378 519.851, 386.290 515.351, 385.455 510.791 C 384.620 506.231, 383.522 501.600, 383.017 500.500 C 382.511 499.400, 381.373 494.675, 380.487 490 C 379.602 485.325, 378.241 479.475, 377.465 477 C 376.688 474.525, 375.544 469.125, 374.922 465 C 374.300 460.875, 373.430 457.050, 372.988 456.500 C 372.545 455.950, 371.410 451.225, 370.465 446 C 369.519 440.775, 368.335 435.709, 367.833 434.741 C 367.331 433.774, 366.062 428.599, 365.013 423.241 C 363.963 417.884, 362.363 410.575, 361.456 407 C 359.379 398.811, 360.029 391.063, 363.188 386.368 C 365.550 382.856, 373.278 378.015, 379.838 375.937 C 381.852 375.299, 384.400 374.226, 385.500 373.553 C 386.600 372.879, 389.750 371.779, 392.500 371.108 C 398.145 369.730, 406 366.211, 406 365.060 C 406 363.974, 404.031 358.028, 402.503 354.500 C 401.788 352.850, 400.682 348.800, 400.044 345.500 C 399.405 342.200, 398.495 338.150, 398.021 336.500 C 396.312 330.553, 395.898 323.370, 396.926 317.491 C 398.940 305.966, 401.064 297.586, 402.362 296.049 C 403.082 295.197, 404.264 292.925, 404.990 291 C 405.715 289.075, 406.802 287.050, 407.404 286.500 C 408.007 285.950, 409.175 284.150, 410 282.500 C 411.830 278.841, 425.797 265, 427.660 265 C 428.397 265, 429 264.579, 429 264.064 C 429 262.740, 439.428 257.605, 448.670 254.379 C 455.744 251.909, 457.852 251.643, 470.500 251.626 C 483.635 251.608, 485.025 251.796, 493 254.674 C 502.241 258.009, 506.746 260.398, 514.628 266.144 C 520.028 270.081, 531 280.762, 531 282.082 C 531 282.509, 531.631 283.488, 532.403 284.260 C 534.138 285.995, 541 300.005, 541 301.812 C 541 302.538, 541.563 304.114, 542.250 305.316 C 542.938 306.517, 543.983 309.300, 544.573 311.500 C 545.609 315.363, 545.779 315.492, 549.531 315.256 C 553.627 314.998, 561.369 312.554, 571.227 308.404 C 577.603 305.721, 587.650 304.337, 593.198 305.377 C 597.083 306.106, 602.793 311.019, 604.962 315.500 C 605.760 317.150, 606.922 319.175, 607.542 320 C 608.163 320.825, 609.269 323.075, 610 325 C 610.731 326.925, 611.869 329.175, 612.528 330 C 613.187 330.825, 614.524 333.637, 615.499 336.250 C 616.474 338.862, 617.589 341, 617.978 341 C 618.366 341, 619.249 342.912, 619.940 345.250 C 620.632 347.587, 621.754 350.175, 622.434 351 C 623.114 351.825, 624.269 354.075, 625 356 C 625.731 357.925, 626.856 360.175, 627.500 361 C 628.144 361.825, 629.269 364.075, 630 366 C 630.731 367.925, 631.856 370.175, 632.500 371 C 633.144 371.825, 634.269 374.075, 635 376 C 635.731 377.925, 636.886 380.175, 637.566 381 C 638.246 381.825, 639.370 384.418, 640.063 386.762 C 640.756 389.106, 641.926 391.524, 642.662 392.134 C 643.398 392.745, 644 393.659, 644 394.165 C 644 395.019, 656.399 420.730, 673.240 454.797 C 677.127 462.660, 680.667 468.733, 681.106 468.294 C 682.442 466.958, 683.856 454.520, 685.005 434 C 685.606 423.275, 686.492 412.475, 686.974 410 C 687.457 407.525, 688.126 401.450, 688.463 396.500 C 688.799 391.550, 689.699 378.174, 690.462 366.776 C 691.225 355.378, 692.084 345.674, 692.369 345.211 C 692.655 344.749, 693.598 332.475, 694.464 317.935 C 695.330 303.396, 696.699 286.100, 697.505 279.500 C 699.554 262.728, 702.350 214.598, 701.564 209.623 C 700.226 201.150, 698.635 197.852, 693.320 192.538 C 690.394 189.611, 686.762 186.908, 685.250 186.531 C 683.737 186.154, 681.071 185.170, 679.326 184.345 C 677.580 183.519, 670.830 182.001, 664.326 180.970 C 649.237 178.580, 634.319 175.657, 633.620 174.956 C 633.096 174.429, 635.700 158.659, 637.978 148.564 C 639.325 142.593, 639.184 117.572, 637.782 114.033 C 637.231 112.640, 636.133 108.800, 635.344 105.500 C 634.043 100.065, 630.378 90.841, 627.993 87 C 627.480 86.175, 626.221 83.700, 625.193 81.500 C 624.166 79.300, 622.577 76.882, 621.663 76.128 C 620.748 75.373, 620 74.161, 620 73.434 C 620 72.708, 619.178 71.525, 618.173 70.807 C 617.168 70.088, 615.931 68.751, 615.423 67.836 C 613.373 64.138, 601.932 53.083, 598 50.998 C 596.625 50.270, 595.050 49.100, 594.500 48.399 C 592.991 46.477, 576.189 38.004, 570.500 36.296 C 567.750 35.471, 564.984 34.376, 564.354 33.862 C 563.724 33.348, 558.324 32.278, 552.354 31.484 C 541.969 30.102, 536.930 29.943, 527 30.686 M 527.500 57.636 C 525.300 57.866, 522.600 58.454, 521.500 58.943 C 520.400 59.433, 517.250 60.352, 514.500 60.986 C 509.275 62.191, 497.455 67.540, 495.179 69.729 C 494.452 70.428, 493.463 71, 492.982 71 C 491.452 71, 475.300 87.478, 474.568 89.786 C 474.181 91.004, 473.434 92, 472.908 92 C 472.381 92, 471.514 93.147, 470.981 94.549 C 470.448 95.951, 468.885 99.482, 467.506 102.395 C 466.128 105.309, 464.980 108.325, 464.956 109.096 C 464.932 109.868, 464.241 112.300, 463.420 114.500 C 461.939 118.470, 457.761 140.094, 458.360 140.693 C 458.693 141.027, 467.172 142.735, 486.500 146.362 C 493.100 147.601, 499.175 148.904, 500 149.259 C 500.825 149.614, 506.450 150.650, 512.500 151.561 C 518.550 152.473, 523.950 153.563, 524.500 153.983 C 525.050 154.404, 527.750 155.041, 530.500 155.401 C 540.845 156.751, 549.534 158.344, 550.500 159.067 C 551.050 159.479, 556.675 160.576, 563 161.504 C 569.325 162.432, 574.950 163.486, 575.500 163.846 C 576.050 164.206, 581.900 165.472, 588.500 166.659 C 595.100 167.847, 601.693 169.128, 603.151 169.507 C 605.661 170.159, 605.885 169.908, 607.385 164.749 C 608.255 161.753, 609.698 152.923, 610.590 145.126 C 612.100 131.933, 612.095 130.239, 610.525 120.725 C 609.598 115.101, 608.279 109.600, 607.594 108.500 C 606.909 107.400, 605.762 104.362, 605.045 101.750 C 604.327 99.138, 603.337 97, 602.845 97 C 602.353 97, 601.537 95.912, 601.031 94.582 C 598.509 87.948, 583.438 72.264, 577.750 70.354 C 576.788 70.031, 576 69.358, 576 68.859 C 576 68.359, 574.853 67.514, 573.451 66.981 C 572.049 66.448, 568.562 64.907, 565.701 63.555 C 562.840 62.204, 558.475 60.783, 556 60.397 C 553.525 60.012, 551.270 59.350, 550.989 58.926 C 550.373 57.997, 533.117 57.050, 527.500 57.636 M 428.826 171.712 C 421.985 175.956, 422.553 188.579, 429.735 191.940 C 431.256 192.651, 433.267 193.622, 434.204 194.096 C 435.218 194.610, 436.152 194.563, 436.513 193.980 C 436.846 193.441, 437.966 193, 439.003 193 C 441.678 193, 445.715 189.122, 447.434 184.902 C 448.785 181.586, 448.737 180.977, 446.826 177.114 C 445.686 174.809, 443.481 172.266, 441.926 171.462 C 438.196 169.533, 432.153 169.648, 428.826 171.712 M 607.500 204.921 C 606.400 205.351, 604.566 206.027, 603.425 206.422 C 601.160 207.208, 599 212.063, 599 216.371 C 599 224.292, 606.695 229.370, 614.949 226.897 C 619.485 225.538, 623 220.822, 623 216.096 C 623 212.637, 620.414 207.292, 618.156 206.083 C 615.545 204.686, 609.723 204.051, 607.500 204.921 M 456 270.894 C 452.425 271.913, 448.150 273.476, 446.500 274.367 C 444.850 275.259, 442.941 275.990, 442.258 275.994 C 441.576 275.997, 440.455 276.900, 439.768 278 C 439.081 279.100, 437.997 280, 437.358 280 C 435.816 280, 427.504 288.478, 424.123 293.500 C 422.642 295.700, 420.843 299.075, 420.126 301 C 419.409 302.925, 418.083 305.850, 417.180 307.500 C 415.887 309.861, 415.535 313.377, 415.528 324 C 415.519 336.699, 415.715 338.064, 418.818 347 C 420.633 352.225, 422.775 357.385, 423.578 358.467 C 424.973 360.346, 425.183 360.359, 428.269 358.765 C 430.046 357.846, 433.525 356.583, 436 355.958 C 438.475 355.332, 441.850 354.194, 443.500 353.429 C 446.913 351.846, 456.114 348.590, 463.500 346.351 C 466.250 345.518, 470.300 344.029, 472.500 343.042 C 474.700 342.056, 478.075 340.916, 480 340.509 C 481.925 340.102, 483.950 339.422, 484.500 338.997 C 485.050 338.572, 488.200 337.450, 491.500 336.504 C 494.800 335.557, 498.339 334.346, 499.365 333.811 C 501.512 332.693, 512.957 328.661, 521 326.190 C 524.025 325.260, 527.063 324.136, 527.750 323.691 C 529.418 322.611, 529.343 318.529, 527.628 317.106 C 526.874 316.480, 526.009 314.446, 525.708 312.585 C 525.052 308.547, 519.307 296.295, 516.787 293.561 C 515.804 292.495, 515 291.294, 515 290.893 C 515 288.360, 498.514 275, 495.388 275 C 494.625 275, 494 274.632, 494 274.183 C 494 272.418, 482.502 269.867, 472.731 269.463 C 464.796 269.135, 461.042 269.456, 456 270.894 M 543.235 341.037 C 540.682 342.062, 539 345.674, 539 350.131 C 539 353.539, 540.565 357, 542.107 357 C 542.677 357, 543.864 357.721, 544.745 358.603 C 548.666 362.523, 557.821 356.932, 558.689 350.088 C 559.064 347.132, 558.613 345.927, 556.128 343.250 C 553.709 340.643, 552.360 340.013, 549.306 340.063 C 547.213 340.098, 544.481 340.536, 543.235 341.037 M 422.934 382.820 C 422.072 383.194, 420.160 384.465, 418.684 385.644 C 414.952 388.625, 414.831 395.922, 418.455 399.545 C 423.143 404.234, 432.933 402.384, 434.749 396.466 C 436.189 391.773, 435.022 387.704, 431.356 384.633 C 428.230 382.016, 425.929 381.520, 422.934 382.820 M 975.200 448.200 C 974.292 449.108, 974.004 464.838, 974.015 512.950 C 974.024 547.903, 974.361 576.950, 974.765 577.500 C 975.912 579.061, 993.195 579.296, 994.167 577.763 C 994.609 577.068, 994.976 547.653, 994.985 512.395 L 995 448.289 988.250 447.652 C 978.689 446.749, 976.562 446.838, 975.200 448.200 M 1020.965 448.435 C 1019.446 449.954, 1019.675 576.275, 1021.200 577.800 C 1021.936 578.536, 1025.533 579, 1030.500 579 C 1035.467 579, 1039.064 578.536, 1039.800 577.800 C 1040.708 576.892, 1040.996 561.162, 1040.985 513.050 C 1040.976 478.097, 1040.639 449.050, 1040.235 448.500 C 1039.291 447.216, 1022.242 447.158, 1020.965 448.435 M 734.493 450.250 C 734.193 451.488, 734.072 480.625, 734.224 515 L 734.500 577.500 744.500 577.500 L 754.500 577.500 754.802 572.250 C 754.969 569.362, 755.581 567, 756.163 567 C 756.746 567, 759.310 568.736, 761.861 570.857 C 764.413 572.979, 768.300 575.287, 770.500 575.988 C 772.700 576.688, 775.131 577.765, 775.903 578.380 C 777.716 579.827, 798.800 579.896, 799.786 578.458 C 800.178 577.885, 802.435 576.793, 804.801 576.031 C 807.166 575.269, 810.048 573.826, 811.204 572.823 C 812.360 571.820, 813.647 571, 814.063 571 C 815.274 571, 823.346 562.227, 825.118 558.984 C 826.008 557.355, 827.175 555.455, 827.710 554.761 C 828.246 554.068, 829.767 550.125, 831.092 546 C 832.982 540.114, 833.500 536.327, 833.500 528.401 C 833.500 522.847, 832.994 517.222, 832.375 515.901 C 831.756 514.581, 830.511 510.961, 829.608 507.858 C 828.705 504.756, 827.299 501.663, 826.483 500.986 C 825.667 500.309, 825 499.246, 825 498.623 C 825 496.517, 813.537 486.560, 808 483.856 C 801.243 480.557, 791.462 478.689, 785.198 479.504 C 778.308 480.399, 770.574 482.184, 770 483.011 C 769.725 483.407, 767.700 484.644, 765.500 485.759 C 763.300 486.875, 760.643 488.735, 759.595 489.894 C 755.288 494.656, 755 493.408, 755 470 L 755 448 745.019 448 C 735.497 448, 735.013 448.103, 734.493 450.250 M 454.500 456.296 C 451.750 456.958, 448.517 458.063, 447.316 458.750 C 446.114 459.438, 444.579 460, 443.903 460 C 442.133 460, 432.937 465.992, 430 469.059 C 428.625 470.495, 427.033 471.857, 426.463 472.085 C 425.893 472.313, 423.868 474.525, 421.963 477 C 420.058 479.475, 418.220 481.725, 417.878 482 C 417.536 482.275, 415.613 486.019, 413.605 490.321 C 408.485 501.290, 407.046 514.554, 409.449 528.650 C 410.371 534.057, 411.711 539.160, 412.428 539.990 C 413.145 540.821, 414.017 542.703, 414.365 544.173 C 414.714 545.643, 416.125 548.183, 417.500 549.817 C 418.875 551.452, 420 553.282, 420 553.886 C 420 554.489, 420.900 555.545, 422 556.232 C 423.100 556.919, 424 557.969, 424 558.566 C 424 559.780, 435.126 569.010, 439 571.009 C 440.375 571.719, 441.725 572.604, 442 572.977 C 442.711 573.939, 452.490 577, 454.855 577 C 455.943 577, 457.004 577.511, 457.212 578.135 C 457.692 579.576, 478.867 579.642, 481.595 578.212 C 482.643 577.663, 485.975 576.650, 489 575.961 C 494 574.822, 503.846 570.113, 506.613 567.536 C 507.226 566.966, 509.588 564.957, 511.863 563.072 C 514.139 561.187, 516 559.157, 516 558.563 C 516 557.968, 516.900 556.919, 518 556.232 C 519.100 555.545, 520 554.382, 520 553.647 C 520 552.911, 520.900 551.495, 522 550.500 C 523.100 549.505, 524 548.323, 524 547.875 C 524 547.426, 525.154 544.536, 526.565 541.451 C 530.552 532.736, 532.263 518.451, 530.025 512.565 L 529.050 510 496.632 510 C 469.311 510, 464.127 510.227, 463.660 511.443 C 463.356 512.236, 463.373 516.061, 463.698 519.943 L 464.290 527 485.538 527 C 502.715 527, 506.888 527.265, 507.317 528.385 C 508.223 530.744, 504.942 540.312, 501.897 544.191 C 500.304 546.222, 499 548.359, 499 548.941 C 499 549.524, 498.635 550, 498.189 550 C 497.742 550, 496.355 550.953, 495.105 552.117 C 492.933 554.140, 486.512 556.964, 479 559.200 C 470.957 561.594, 452.773 557.843, 446.009 552.395 C 440.821 548.215, 436.807 543.182, 433.732 537 C 430.554 530.609, 430.501 530.274, 430.572 517 C 430.638 504.769, 430.887 502.947, 433.222 497.621 C 436.191 490.846, 443.137 482.428, 447.500 480.315 C 449.150 479.516, 451.625 478.252, 453 477.505 C 457.951 474.819, 470.774 473.831, 479.933 475.430 C 484.544 476.234, 488.582 477.255, 488.908 477.697 C 489.234 478.138, 491.525 480.058, 494 481.963 C 496.475 483.868, 498.679 485.867, 498.898 486.406 C 499.116 486.945, 500.334 488.424, 501.602 489.693 C 503.733 491.824, 504.753 492, 514.955 492 C 527.455 492, 527.619 491.867, 523.750 484.825 C 519.932 477.874, 519.673 477.543, 513.299 471.439 C 504.367 462.884, 504.255 462.806, 495.489 459.103 C 487.896 455.896, 486.806 455.712, 473.500 455.411 C 464.900 455.215, 457.571 455.557, 454.500 456.296 M 887.623 459.220 C 886.799 461.024, 885.464 464.800, 884.657 467.611 C 883.850 470.423, 882.709 473.573, 882.121 474.611 C 881.534 475.650, 880.382 478.750, 879.562 481.500 C 878.742 484.250, 876.670 490.325, 874.958 495 C 873.245 499.675, 871.092 506.020, 870.172 509.101 C 869.252 512.181, 868.002 515.331, 867.394 516.101 C 866.786 516.870, 865.744 519.750, 865.079 522.500 C 864.414 525.250, 863.298 528.400, 862.599 529.500 C 861.900 530.600, 860.771 533.750, 860.089 536.500 C 859.408 539.250, 858.240 542.850, 857.493 544.500 C 856.746 546.150, 855.419 549.750, 854.545 552.500 C 853.670 555.250, 852.515 558.400, 851.978 559.500 C 850.805 561.901, 847.077 572.595, 846.312 575.750 C 845.778 577.956, 845.941 578, 854.633 577.986 C 866.813 577.968, 867.774 577.610, 869.023 572.635 C 869.595 570.361, 870.898 566.475, 871.920 564 C 872.942 561.525, 874.268 558.263, 874.867 556.750 L 875.957 554 900.907 554 L 925.856 554 927.801 559.250 C 928.870 562.138, 930.069 565.625, 930.465 567 C 930.861 568.375, 932.084 571.413, 933.182 573.750 L 935.178 578 945.030 578 C 950.449 578, 955.089 577.663, 955.342 577.250 C 955.839 576.441, 953.710 569.360, 951.509 564.500 C 950.761 562.850, 949.612 559.362, 948.956 556.750 C 948.300 554.138, 947.366 552, 946.881 552 C 946.397 552, 946 551.206, 946 550.236 C 946 549.266, 945.060 546.003, 943.912 542.986 C 942.764 539.969, 940.997 534.886, 939.986 531.692 C 938.975 528.497, 937.735 525.347, 937.229 524.692 C 936.724 524.036, 935.722 521.250, 935.004 518.500 C 934.285 515.750, 933.112 512.375, 932.398 511 C 931.683 509.625, 930.357 505.800, 929.450 502.500 C 928.543 499.200, 927.501 496.275, 927.134 496 C 926.767 495.725, 925.900 493.312, 925.207 490.638 C 924.514 487.963, 923.119 483.913, 922.106 481.638 C 921.094 479.362, 919.946 476.150, 919.556 474.500 C 919.165 472.850, 918.209 470.150, 917.430 468.500 C 916.651 466.850, 915.429 463.475, 914.715 461 L 913.415 456.500 901.269 456.220 L 889.123 455.939 887.623 459.220 M 589.098 480.629 C 582.859 481.903, 580.722 483.191, 574.806 489.244 C 573.325 490.760, 571.661 492, 571.109 492 C 570.556 492, 569.969 489.637, 569.802 486.750 L 569.500 481.500 559.500 481.500 L 549.500 481.500 549.223 527.500 C 549.070 552.800, 549.191 574.513, 549.492 575.750 C 550.013 577.895, 550.501 578, 559.924 578 L 569.809 578 570.154 546.750 L 570.500 515.500 573.112 511.195 C 576.511 505.591, 582.783 502.236, 591.703 501.251 L 598.500 500.500 598.784 490.375 C 599.116 478.519, 599.168 478.572, 589.098 480.629 M 645.500 480.388 C 638.271 481.965, 631.466 485.736, 624.853 491.828 C 620.125 496.182, 618.831 497.962, 615.634 504.500 C 610.490 515.019, 610.498 514.977, 610.545 530 C 610.589 544.261, 610.643 544.613, 613.851 551.352 C 615.645 555.121, 617.987 559.143, 619.056 560.291 C 620.125 561.438, 621 562.695, 621 563.083 C 621 564.173, 626.683 570, 627.746 570 C 628.265 570, 629.490 570.884, 630.467 571.964 C 631.445 573.044, 634.327 574.667, 636.872 575.570 C 639.418 576.473, 642.585 577.726, 643.912 578.356 C 646.971 579.807, 666.812 579.884, 667.787 578.449 C 668.179 577.870, 670.707 576.569, 673.404 575.557 C 678.466 573.658, 680.707 572.180, 684.619 568.159 C 687.768 564.924, 689 566.172, 689 572.595 L 689 578.072 698.750 577.786 L 708.500 577.500 708.760 529.250 L 709.019 481 699.117 481 C 688.110 481, 687.426 481.425, 688.576 487.552 C 688.914 489.358, 688.803 491.529, 688.329 492.377 C 687.606 493.668, 686.894 493.379, 683.941 490.592 C 682.002 488.763, 678.972 486.520, 677.208 485.608 C 675.444 484.695, 674 483.582, 674 483.133 C 674 482.063, 665.060 480.115, 657.500 479.537 C 654.200 479.286, 648.800 479.669, 645.500 480.388 M 899.658 484.675 C 899.296 485.037, 899 486.351, 899 487.595 C 899 488.839, 898.394 490.463, 897.654 491.203 C 896.913 491.944, 895.738 495.013, 895.041 498.025 C 894.345 501.036, 893.187 504.441, 892.469 505.590 C 891.751 506.740, 890.644 509.609, 890.009 511.965 C 889.375 514.321, 888.364 517.430, 887.762 518.874 C 887.161 520.318, 885.687 524.763, 884.487 528.750 L 882.306 536 900.770 536 L 919.233 536 918.669 533.750 C 917.648 529.679, 913.874 518.558, 912.474 515.500 C 911.719 513.850, 910.411 510.080, 909.567 507.121 C 908.722 504.163, 907.649 501.238, 907.181 500.621 C 906.713 500.005, 905.536 496.480, 904.565 492.789 C 902.863 486.320, 901.035 483.298, 899.658 484.675 M 656.500 497.961 C 655.400 498.416, 652.477 499.394, 650.003 500.135 C 643.965 501.945, 636.087 509.795, 633.196 516.883 C 630.086 524.507, 630.202 534.076, 633.502 542.198 C 634.878 545.584, 636.877 549.168, 637.944 550.162 C 639.011 551.156, 640.247 552.561, 640.692 553.285 C 641.136 554.008, 643.750 555.927, 646.500 557.550 C 650.914 560.154, 652.438 560.500, 659.500 560.500 C 666.809 560.500, 667.975 560.211, 673 557.156 C 676.025 555.316, 679.903 551.941, 681.618 549.656 C 685.217 544.858, 688.467 535.295, 688.467 529.500 C 688.467 524.242, 685.351 514.585, 682.560 511.196 C 681.339 509.713, 680.053 507.712, 679.702 506.750 C 679.350 505.788, 678.396 505, 677.581 505 C 676.766 505, 675.707 504.298, 675.226 503.440 C 674.387 501.940, 662.181 496.929, 659.705 497.068 C 659.042 497.105, 657.600 497.507, 656.500 497.961 M 775.081 499.592 C 767.659 502.371, 761.679 507.946, 757.913 515.597 C 755.836 519.816, 755.500 521.934, 755.500 530.786 C 755.500 537.259, 755.913 541.337, 756.615 541.786 C 757.229 542.179, 758.070 543.588, 758.486 544.918 C 759.129 546.977, 765.581 553.964, 770.169 557.570 C 772.698 559.558, 778.270 561, 783.399 560.994 C 789.244 560.988, 796 559.357, 796 557.953 C 796 557.429, 796.563 556.993, 797.250 556.984 C 799.119 556.960, 804.318 552.031, 807.255 547.500 C 808.680 545.300, 810.596 540.455, 811.511 536.732 C 812.900 531.084, 812.981 529.099, 811.997 524.732 C 809.627 514.215, 808.632 512.032, 803.920 507.013 C 799.960 502.795, 797.836 501.473, 791.809 499.475 C 783.040 496.568, 783.156 496.567, 775.081 499.592" stroke="none" fill="#190be0" fill-rule="evenodd"/>
</svg>